<svg width="144" height="29" viewBox="0 0 144 29" fill="none" xmlns="http://www.w3.org/2000/svg">
<path fill-rule="evenodd" clip-rule="evenodd" d="M58.6511 5.8752C57.762 5.3184 56.6988 5.04 55.4617 5.04C54.128 5.04 52.9344 5.3712 51.8809 6.0336C50.8274 6.696 49.9962 7.64639 49.3874 8.8848C48.7785 10.1232 48.474 11.5872 48.474 13.2768C48.474 14.9472 48.7785 16.4064 49.3874 17.6544C49.9962 18.9024 50.8274 19.8576 51.8809 20.52C52.9344 21.1824 54.128 21.5136 55.4617 21.5136C56.6988 21.5136 57.762 21.2352 58.6511 20.6784C59.5403 20.1216 60.1878 19.3632 60.5938 18.4032V21.312H65.5518V0H60.5938V8.1504C60.1878 7.1904 59.5403 6.432 58.6511 5.8752ZM5.1851 21.312V14.1696H8.25852C9.8629 14.1696 11.2256 13.8864 12.3468 13.32C13.4679 12.7536 14.3136 11.976 14.8838 10.9872C15.454 9.9984 15.7391 8.87041 15.7391 7.6032C15.7391 5.56799 15.1013 3.95041 13.8255 2.7504C12.5497 1.55039 10.6941 0.9504 8.25852 0.9504H0.22702V21.312H5.1851ZM10.6941 7.6032C10.6941 9.35041 9.6986 10.224 7.70763 10.224H5.1851V4.9248H7.70763C9.6986 4.9248 10.6941 5.81759 10.6941 7.6032ZM23.1328 8.2656C23.7513 7.2864 24.5486 6.5088 25.5248 5.9328C26.501 5.3568 27.5593 5.0688 28.6997 5.0688V10.3392H27.279C25.9646 10.3392 24.9449 10.6176 24.22 11.1744C23.4952 11.7312 23.1328 12.672 23.1328 13.9968V21.312H18.1747V5.2416H23.1328V8.2656ZM42.6606 6.0336C41.3945 5.3712 39.9593 5.04 38.3549 5.04C36.7505 5.04 35.3105 5.3712 34.0347 6.0336C32.7589 6.696 31.7586 7.65119 31.0338 8.8992C30.3089 10.1472 29.9465 11.6064 29.9465 13.2768C29.9465 14.9472 30.3089 16.4064 31.0338 17.6544C31.7586 18.9024 32.7589 19.8576 34.0347 20.52C35.3105 21.1824 36.7505 21.5136 38.3549 21.5136C39.9593 21.5136 41.3945 21.1824 42.6606 20.52C43.9267 19.8576 44.9222 18.9024 45.6471 17.6544C46.3719 16.4064 46.7344 14.9472 46.7344 13.2768C46.7344 11.6064 46.3719 10.1472 45.6471 8.8992C44.9222 7.65119 43.9267 6.696 42.6606 6.0336ZM38.3549 9.3024C37.4078 9.3024 36.6104 9.6432 35.9629 10.3248C35.3153 11.0064 34.9915 11.9904 34.9915 13.2768C34.9915 14.5632 35.3153 15.5424 35.9629 16.2144C36.6104 16.8864 37.4077 17.2224 38.3549 17.2224C39.3021 17.2224 40.0946 16.8864 40.7325 16.2144C41.3704 15.5424 41.6893 14.5632 41.6893 13.2768C41.6893 11.9904 41.3704 11.0064 40.7325 10.3248C40.0946 9.6432 39.3021 9.3024 38.3549 9.3024ZM57.0564 9.36C55.9933 9.36 55.138 9.7056 54.4904 10.3968C53.8429 11.088 53.5191 12.048 53.5191 13.2768C53.5191 14.5056 53.8429 15.4656 54.4904 16.1568C55.138 16.848 55.9933 17.1936 57.0564 17.1936C58.1002 17.1936 58.9556 16.8384 59.6224 16.128C60.2893 15.4176 60.6228 14.4672 60.6228 13.2768C60.6228 12.0672 60.2893 11.112 59.6224 10.4112C58.9556 9.7104 58.1002 9.36 57.0564 9.36ZM80.0781 21.312H85.0652V5.2416H80.0781V13.7664C80.0781 14.9376 79.7882 15.84 79.2083 16.4736C78.6284 17.1072 77.8359 17.424 76.8307 17.424C75.8643 17.424 75.0959 17.1216 74.5257 16.5168C73.9554 15.912 73.6703 15.0624 73.6703 13.968V5.2416H68.7412V14.5728C68.7412 16.7232 69.2873 18.4128 70.3794 19.6416C71.4716 20.8704 72.9455 21.4848 74.8011 21.4848C76.0189 21.4848 77.0869 21.2064 78.005 20.6496C78.9232 20.0928 79.6142 19.344 80.0781 18.4032V21.312ZM95.7932 5.04C97.8808 5.04 99.6301 5.61119 101.041 6.7536C102.452 7.89601 103.341 9.46559 103.709 11.4624H98.4607C98.3061 10.7712 97.9871 10.2336 97.5039 9.8496C97.0206 9.4656 96.4118 9.2736 95.6772 9.2736C94.8074 9.2736 94.0922 9.6144 93.5316 10.296C92.9711 10.9776 92.6908 11.9712 92.6908 13.2768C92.6908 14.5824 92.9711 15.576 93.5316 16.2576C94.0922 16.9392 94.8074 17.28 95.6772 17.28C96.4118 17.28 97.0206 17.088 97.5039 16.704C97.9871 16.32 98.3061 15.7824 98.4607 15.0912H103.709C103.341 17.088 102.452 18.6576 101.041 19.8C99.6301 20.9424 97.8808 21.5136 95.7932 21.5136C94.2082 21.5136 92.8019 21.1824 91.5745 20.52C90.347 19.8576 89.3854 18.9024 88.6895 17.6544C87.9937 16.4064 87.6457 14.9472 87.6457 13.2768C87.6457 11.5872 87.9888 10.1232 88.675 8.8848C89.3612 7.64639 90.3229 6.696 91.56 6.0336C92.7971 5.3712 94.2082 5.04 95.7932 5.04ZM115.452 21.312V17.0784H113.886C113.267 17.0784 112.828 16.9536 112.567 16.704C112.306 16.4544 112.175 16.0128 112.175 15.3792V9.3888H115.423V5.2416H112.175V1.296H107.217V5.2416H105.042V9.3888H107.217V15.2928C107.217 17.4432 107.744 18.984 108.797 19.9152C109.851 20.8464 111.325 21.312 113.219 21.312H115.452ZM123.193 0V21.312H118.235V0H123.193ZM134.24 15.0912L130.355 5.2416H124.817L131.602 20.7072L127.803 28.9728H133.254L143.344 5.2416H137.864L134.24 15.0912Z" fill="#173A56"/>
</svg>
